<?xml version="1.0" encoding="utf-8"?>
<!-- Generator: Adobe Illustrator 25.0.1, SVG Export Plug-In . SVG Version: 6.00 Build 0)  -->
<svg version="1.1" id="Layer_1" xmlns="http://www.w3.org/2000/svg" xmlns:xlink="http://www.w3.org/1999/xlink" x="0px" y="0px"
	 viewBox="0 0 167 167" style="enable-background:new 0 0 167 167;" xml:space="preserve">
<style type="text/css">
	.st0{fill:#FFFFFF;}
</style>
<g>
	<path class="st0" d="M155,41.7c0-6.5-2.8-9.3-9.3-9.3c-41.4,0-82.7,0-124.1,0c-6.8,0-9.5,2.7-9.5,9.4c0,27.8,0,55.5,0,83.3
		c0,6.7,2.7,9.4,9.5,9.4c20.6,0,41.3,0,61.9,0c20.7,0,41.5,0,62.2,0c6.6,0,9.3-2.8,9.3-9.3C155,97.4,155,69.6,155,41.7z M17,44.9
		c0.1-7.3,0-7.3,7.3-7.3c40.2,0,80.4,0,120.6,0c4.8,0,5,0.2,5,5.1c0,5.1,0,5.1-5.1,5.1c-20.4,0-40.8,0-61.3,0
		c-21.2,0-42.3,0-63.5,0.1C17.7,47.8,17,47.3,17,44.9z M149.9,125c0,4-0.4,4.5-4.3,4.5c-41.4,0-82.7,0-124.1,0
		c-3.9,0-4.3-0.4-4.3-4.5c0-23.1,0-46.2-0.1-69.2c0-2.4,0.6-3,2.9-3c21.2,0.1,42.3,0.1,63.5,0.1s42.3,0,63.5-0.1c2.4,0,3,0.6,3,2.9
		C149.8,78.8,149.9,101.9,149.9,125z"/>
	<path class="st0" d="M33.4,63.1c-2.7,0-5.3,0-8,0c-1.9,0-3.2-0.7-3.1-2.7c0.1-1.8,1.4-2.4,3.1-2.4c5.5,0,11.1,0,16.6,0
		c1.9,0,3.2,0.7,3.1,2.7c-0.1,1.8-1.4,2.4-3.1,2.4C39.1,63.1,36.3,63.1,33.4,63.1z"/>
	<path class="st0" d="M33.5,73.3c-2.7,0-5.3,0-8,0c-1.8,0-3.3-0.6-3.2-2.6c0-1.8,1.3-2.5,3-2.5c5.6,0,11.3,0,16.9,0
		c1.8,0,3,0.8,2.9,2.6c0,1.8-1.3,2.5-3,2.5C39.2,73.3,36.4,73.3,33.5,73.3z"/>
	<path class="st0" d="M33.6,83.5c-2.8,0-5.5,0-8.3,0c-1.7,0-3-0.7-3-2.5c0-1.8,1.2-2.6,2.9-2.6c5.6,0,11.3,0,16.9,0
		c1.7,0,3,0.7,3,2.5c0,2-1.4,2.6-3.2,2.6C39.1,83.5,36.4,83.5,33.6,83.5z"/>
	<path class="st0" d="M33.8,88.6c2.8,0,5.5,0,8.3,0c1.7,0,3,0.7,3,2.5c0,1.8-1.2,2.6-2.9,2.6c-5.6,0-11.3,0-16.9,0
		c-1.7,0-3-0.7-3-2.5c0-1.8,1.2-2.6,2.9-2.6C28.1,88.6,31,88.6,33.8,88.6z"/>
	<path class="st0" d="M124.4,42.8c-0.3,1.5-1.1,2.5-2.7,2.4c-1.6-0.1-2.5-1.2-2.4-2.8c0.1-1.4,1.1-2.3,2.5-2.3
		C123.4,40.2,124.2,41.2,124.4,42.8z"/>
	<path class="st0" d="M132.1,40.1c1.5,0.3,2.6,1.1,2.4,2.7c-0.1,1.6-1.2,2.5-2.8,2.4c-1.4-0.1-2.3-1.1-2.3-2.5
		C129.5,41,130.5,40.2,132.1,40.1z"/>
	<path class="st0" d="M144.8,42.8c-0.3,1.5-1.2,2.5-2.8,2.4c-1.6-0.2-2.5-1.2-2.3-2.8c0.2-1.4,1.1-2.3,2.6-2.2
		C143.9,40.2,144.7,41.2,144.8,42.8z"/>
	<g>
		<path class="st0" d="M122.1,93.7c-8.6,0-17.2-0.1-25.8,0c-2,0-2.7-0.4-2.7-2.6c0.1-8.7,0.1-17.4,0-26.1c0-3.7-1.1-4.6-4.7-3.7
			c-6.9,1.8-12.6,5.4-17,11.1c-8.1,10.6-8.6,24.6-0.9,36c2,2.9-0.6,4.4-1.1,6.6c-0.4,1.7-1.8,1.8-3.2,1.7c-2.9-0.1-5.7,0-8.6,0
			c-1.6,0-2.7,0.9-2.7,2.5c0,1.6,1,2.5,2.7,2.5c1.7,0,3.4-0.1,5.1,0c5.9,0.5,11.6,0.5,12.3-7.9c1.4,1.1,2.1,1.6,2.8,2.1
			c17.6,12.6,42.1,3.7,47.6-17.2C127,94.8,126.2,93.7,122.1,93.7z M94.7,116.7c-12.4-0.6-22.8-10.8-23.9-23.3
			c-1-12,7.1-24,17.8-26.3c0,9.2,0,18.3,0,27.4c0,3.8,0.5,4.3,4.2,4.3c9.1,0,18.3,0,27.4,0C118.4,109.1,106.6,117.3,94.7,116.7z"/>
		<path class="st0" d="M131.5,60.5c-3,0-6,0.2-8.9-0.1c-3.5-0.3-6,0.6-7,4.2c-0.6,2.1-1.6,1.6-2.9,0.7c-3-2.1-6.4-3.4-9.9-4.1
			c-2.4-0.5-4,0.3-3.9,3c0,7,0,14,0,21c0,2.5,1.2,3.4,3.5,3.4c3.4-0.1,6.8,0,10.2,0c3.3,0,6.6,0,9.9,0c3.7,0,4.5-1.1,3.6-4.8
			c-1.1-4.5-3.1-8.6-6.2-12.1c-1.1-1.3-1.1-2.2-0.3-3.6c0.8-1.3,1.1-2.8,3.3-2.6c2.8,0.3,5.7,0.1,8.6,0.1c1.7,0,3-0.7,3-2.5
			C134.5,61.3,133.3,60.5,131.5,60.5z M120.6,83.5c-5.3,0-10.3,0-15.2,0c-1.4,0-1.5-0.6-1.5-1.7c0-4.9,0-9.7,0-15
			C112.2,69.7,117.6,75.1,120.6,83.5z"/>
	</g>
</g>
</svg>
