<svg xmlns="http://www.w3.org/2000/svg" width="111" height="111" viewBox="0 0 111 111">
  <metadata><?xpacket begin="﻿" id="W5M0MpCehiHzreSzNTczkc9d"?>
<x:xmpmeta xmlns:x="adobe:ns:meta/" x:xmptk="Adobe XMP Core 5.6-c142 79.160924, 2017/07/13-01:06:39        ">
   <rdf:RDF xmlns:rdf="http://www.w3.org/1999/02/22-rdf-syntax-ns#">
      <rdf:Description rdf:about=""/>
   </rdf:RDF>
</x:xmpmeta>
                                                                                                    
                                                                                                    
                                                                                                    
                                                                                                    
                                                                                                    
                                                                                                    
                                                                                                    
                                                                                                    
                                                                                                    
                                                                                                    
                                                                                                    
                                                                                                    
                                                                                                    
                                                                                                    
                                                                                                    
                                                                                                    
                                                                                                    
                                                                                                    
                                                                                                    
                                                                                                    
                           
<?xpacket end="w"?></metadata>
<defs>
    <style>
      .cls-1 {
        fill: #fff;
        fill-rule: evenodd;
      }
    </style>
  </defs>
  <path class="cls-1" d="M103.964,45.311L56.047,10.06a2.616,2.616,0,0,0-3.1,0L5.026,45.311A2.647,2.647,0,0,0,4.458,49a2.619,2.619,0,0,0,3.671.57L54.495,15.46l46.366,34.11a2.618,2.618,0,0,0,3.671-.57A2.647,2.647,0,0,0,103.964,45.311Zm-12.7,4.856a2.633,2.633,0,0,0-2.627,2.639V94.813H67.629V71.883a13.134,13.134,0,1,0-26.267,0v22.93H20.349V52.807a2.626,2.626,0,1,0-5.253,0V97.452a2.633,2.633,0,0,0,2.627,2.639H43.988A2.63,2.63,0,0,0,46.6,97.658a1.976,1.976,0,0,0,.01-0.206V71.883a7.881,7.881,0,1,1,15.761,0V97.452a1.926,1.926,0,0,0,.01.2A2.63,2.63,0,0,0,65,100.091H91.267a2.633,2.633,0,0,0,2.627-2.639V52.807A2.633,2.633,0,0,0,91.267,50.167Z"/>
</svg>
