<svg xmlns="http://www.w3.org/2000/svg" width="111" height="111" viewBox="0 0 111 111">
  <metadata><?xpacket begin="﻿" id="W5M0MpCehiHzreSzNTczkc9d"?>
<x:xmpmeta xmlns:x="adobe:ns:meta/" x:xmptk="Adobe XMP Core 5.6-c142 79.160924, 2017/07/13-01:06:39        ">
   <rdf:RDF xmlns:rdf="http://www.w3.org/1999/02/22-rdf-syntax-ns#">
      <rdf:Description rdf:about=""/>
   </rdf:RDF>
</x:xmpmeta>
                                                                                                    
                                                                                                    
                                                                                                    
                                                                                                    
                                                                                                    
                                                                                                    
                                                                                                    
                                                                                                    
                                                                                                    
                                                                                                    
                                                                                                    
                                                                                                    
                                                                                                    
                                                                                                    
                                                                                                    
                                                                                                    
                                                                                                    
                                                                                                    
                                                                                                    
                                                                                                    
                           
<?xpacket end="w"?></metadata>
<defs>
    <style>
      .cls-1 {
        fill: none;
        stroke: #fff;
        stroke-width: 6.69px;
        fill-rule: evenodd;
      }
    </style>
  </defs>
  <path class="cls-1" d="M55.893,50.25a21.684,21.684,0,0,0,15.848-6.568,21.7,21.7,0,0,0,6.566-15.852A21.7,21.7,0,0,0,71.74,11.979,21.689,21.689,0,0,0,55.893,5.412,21.683,21.683,0,0,0,40.045,11.98a21.7,21.7,0,0,0-6.566,15.851,21.7,21.7,0,0,0,6.567,15.852A21.69,21.69,0,0,0,55.893,50.25ZM95.111,84.32a55.309,55.309,0,0,0-.754-5.881,46.327,46.327,0,0,0-1.446-5.914,29.266,29.266,0,0,0-2.43-5.515,20.83,20.83,0,0,0-3.665-4.777,16.16,16.16,0,0,0-5.265-3.309,18.189,18.189,0,0,0-6.72-1.217c-0.95,0-1.869.39-3.643,1.545-1.092.712-2.369,1.536-3.795,2.447a21.74,21.74,0,0,1-4.91,2.164,19.059,19.059,0,0,1-12.011,0A21.682,21.682,0,0,1,45.564,61.7c-1.412-.9-2.69-1.726-3.8-2.449-1.772-1.155-2.692-1.545-3.642-1.545a18.169,18.169,0,0,0-6.72,1.218,16.141,16.141,0,0,0-5.265,3.309,20.8,20.8,0,0,0-3.663,4.776,29.223,29.223,0,0,0-2.43,5.516A46.42,46.42,0,0,0,18.6,78.438a55.115,55.115,0,0,0-.754,5.884c-0.123,1.781-.186,3.63-0.186,5.5,0,4.859,1.544,8.792,4.589,11.693,3.008,2.863,6.987,4.315,11.826,4.315H78.884c4.839,0,8.817-1.451,11.825-4.315,3.046-2.9,4.59-6.833,4.59-11.694C95.3,87.943,95.235,86.092,95.111,84.32Z"/>
</svg>
