<svg xmlns="http://www.w3.org/2000/svg" width="111" height="111" viewBox="0 0 111 111">
  <metadata><?xpacket begin="﻿" id="W5M0MpCehiHzreSzNTczkc9d"?>
<x:xmpmeta xmlns:x="adobe:ns:meta/" x:xmptk="Adobe XMP Core 5.6-c142 79.160924, 2017/07/13-01:06:39        ">
   <rdf:RDF xmlns:rdf="http://www.w3.org/1999/02/22-rdf-syntax-ns#">
      <rdf:Description rdf:about=""/>
   </rdf:RDF>
</x:xmpmeta>
                                                                                                    
                                                                                                    
                                                                                                    
                                                                                                    
                                                                                                    
                                                                                                    
                                                                                                    
                                                                                                    
                                                                                                    
                                                                                                    
                                                                                                    
                                                                                                    
                                                                                                    
                                                                                                    
                                                                                                    
                                                                                                    
                                                                                                    
                                                                                                    
                                                                                                    
                                                                                                    
                           
<?xpacket end="w"?></metadata>
<defs>
    <style>
      .cls-1 {
        fill: #fff;
        fill-rule: evenodd;
      }
    </style>
  </defs>
  <path class="cls-1" d="M60.115,109.006H53.71a9.436,9.436,0,0,1-9.4-9.454V97.371a41.046,41.046,0,0,1-6.4-2.672L36.38,96.244a9.355,9.355,0,0,1-13.289,0l-4.527-4.555a9.5,9.5,0,0,1,0-13.372L20.1,76.772a41.633,41.633,0,0,1-2.656-6.438H15.277a9.436,9.436,0,0,1-9.4-9.454V54.434a9.436,9.436,0,0,1,9.4-9.454h2.167A41.64,41.64,0,0,1,20.1,38.542L18.564,37a9.5,9.5,0,0,1,0-13.372l4.527-4.555a9.354,9.354,0,0,1,13.289,0l1.534,1.544a41.12,41.12,0,0,1,6.4-2.672v-2.18a9.436,9.436,0,0,1,9.4-9.454h6.406a9.436,9.436,0,0,1,9.4,9.454v2.181a41.049,41.049,0,0,1,6.4,2.672l1.536-1.545a9.355,9.355,0,0,1,13.289,0l4.527,4.555A9.5,9.5,0,0,1,95.26,37l-1.535,1.544a41.574,41.574,0,0,1,2.656,6.438h2.167a9.436,9.436,0,0,1,9.4,9.454V60.88a9.436,9.436,0,0,1-9.4,9.454H96.382a41.582,41.582,0,0,1-2.656,6.438l1.536,1.545a9.5,9.5,0,0,1,0,13.372l-4.528,4.556a9.353,9.353,0,0,1-13.289,0L75.909,94.7a41.1,41.1,0,0,1-6.4,2.672v2.18A9.435,9.435,0,0,1,60.115,109.006ZM38.915,88.38A35.128,35.128,0,0,0,48.052,92.2a3.006,3.006,0,0,1,2.243,2.913v4.443a3.43,3.43,0,0,0,3.415,3.437h6.406a3.43,3.43,0,0,0,3.416-3.437V95.11A3.006,3.006,0,0,1,65.774,92.2,35.121,35.121,0,0,0,74.91,88.38a2.976,2.976,0,0,1,3.637.462l3.127,3.147a3.4,3.4,0,0,0,4.829,0l4.53-4.558a3.451,3.451,0,0,0,0-4.859l-3.129-3.148a3.023,3.023,0,0,1-.459-3.659,35.589,35.589,0,0,0,3.792-9.193,2.994,2.994,0,0,1,2.9-2.257h4.415a3.43,3.43,0,0,0,3.415-3.437V54.434A3.43,3.43,0,0,0,98.549,51H94.134a2.994,2.994,0,0,1-2.9-2.257,35.588,35.588,0,0,0-3.792-9.193,3.023,3.023,0,0,1,.459-3.659l3.127-3.147a3.451,3.451,0,0,0,0-4.859L86.5,23.325a3.4,3.4,0,0,0-4.829,0l-3.129,3.148a2.976,2.976,0,0,1-3.637.462,35.122,35.122,0,0,0-9.136-3.816A3.005,3.005,0,0,1,63.531,20.2V15.762a3.43,3.43,0,0,0-3.416-3.437H53.71a3.43,3.43,0,0,0-3.416,3.437V20.2a3.005,3.005,0,0,1-2.243,2.913,35.125,35.125,0,0,0-9.136,3.816,2.976,2.976,0,0,1-3.636-.462l-3.127-3.147a3.4,3.4,0,0,0-4.829,0l-4.531,4.558a3.451,3.451,0,0,0,0,4.859l3.129,3.148a3.023,3.023,0,0,1,.459,3.659,35.572,35.572,0,0,0-3.792,9.193A2.994,2.994,0,0,1,19.692,51H15.277a3.43,3.43,0,0,0-3.416,3.437V60.88a3.43,3.43,0,0,0,3.416,3.437h4.415a2.994,2.994,0,0,1,2.9,2.257,35.59,35.59,0,0,0,3.792,9.193,3.023,3.023,0,0,1-.46,3.659l-3.127,3.147a3.451,3.451,0,0,0,0,4.859l4.53,4.558a3.4,3.4,0,0,0,4.829,0l3.129-3.148a2.99,2.99,0,0,1,3.636-.462h0Zm18-8.378A22.345,22.345,0,1,1,79.119,57.657,22.3,22.3,0,0,1,56.913,80Zm0-38.672A16.328,16.328,0,1,0,73.139,57.657,16.3,16.3,0,0,0,56.913,41.33h0Z"/>
</svg>
